<mxfile host="Electron" agent="Mozilla/5.0 (Macintosh; Intel Mac OS X 10_15_7) AppleWebKit/537.36 (KHTML, like Gecko) draw.io/27.0.9 Chrome/134.0.6998.205 Electron/35.4.0 Safari/537.36" version="27.0.9">
  <diagram id="EHD1lapXk6rC4JzmkvKU" name="Page-1">
    <mxGraphModel dx="1206" dy="901" grid="1" gridSize="10" guides="1" tooltips="1" connect="1" arrows="1" fold="1" page="1" pageScale="1" pageWidth="850" pageHeight="1100" math="0" shadow="0">
      <root>
        <mxCell id="0" />
        <mxCell id="1" parent="0" />
        <mxCell id="NDOgM_JSvhHd9fuMqUDp-21" value="" style="rounded=0;whiteSpace=wrap;html=1;strokeColor=none;" parent="1" vertex="1">
          <mxGeometry x="450" y="230" width="690" height="510" as="geometry" />
        </mxCell>
        <mxCell id="4Zy3eIdNENbfcTK7_Kx1-33" value="" style="group" parent="1" vertex="1" connectable="0">
          <mxGeometry x="467" y="413.78999999999996" width="95.43" height="120.56" as="geometry" />
        </mxCell>
        <mxCell id="4Zy3eIdNENbfcTK7_Kx1-21" value="" style="shape=image;html=1;verticalAlign=top;verticalLabelPosition=bottom;labelBackgroundColor=#ffffff;imageAspect=0;aspect=fixed;image=https://cdn0.iconfinder.com/data/icons/software-engineering-and-video-gaming/512/77_hacker_user_gammer_programmer-128.png;rounded=1;strokeWidth=2;fillColor=#636363;clipPath=inset(40.63% 14.84% 10.94% 10.94%);" parent="4Zy3eIdNENbfcTK7_Kx1-33" vertex="1">
          <mxGeometry y="51.84" width="95.43" height="62.27" as="geometry" />
        </mxCell>
        <mxCell id="4Zy3eIdNENbfcTK7_Kx1-10" value="" style="shape=image;html=1;verticalAlign=top;verticalLabelPosition=bottom;labelBackgroundColor=#ffffff;imageAspect=0;aspect=fixed;image=https://cdn0.iconfinder.com/data/icons/kameleon-free-pack/110/Hacker-128.png;clipPath=inset(10.94% 10.94% 32.81% 10.94%);" parent="4Zy3eIdNENbfcTK7_Kx1-33" vertex="1">
          <mxGeometry x="11.714106145251407" width="72" height="51.84" as="geometry" />
        </mxCell>
        <mxCell id="gCakKhsyF8Uj0cIt4Kup-3" value="" style="sketch=0;pointerEvents=1;shadow=0;dashed=0;html=1;strokeColor=none;fillColor=#505050;labelPosition=center;verticalLabelPosition=bottom;verticalAlign=top;outlineConnect=0;align=center;shape=mxgraph.office.servers.web_server;" parent="1" vertex="1">
          <mxGeometry x="1050" y="426.5" width="70.32" height="83.5" as="geometry" />
        </mxCell>
        <mxCell id="aHq0wy39mx1l_re9a6LS-3" value="" style="shape=image;verticalLabelPosition=bottom;labelBackgroundColor=default;verticalAlign=top;aspect=fixed;imageAspect=0;image=data:image/png,iVBORw0KGgoAAAANSUhEUgAAAK0AAACmCAYAAACoaA+AAAAACXBIWXMAAA7DAAAOwwHHb6hkAAAAGXRFWHRTb2Z0d2FyZQB3d3cuaW5rc2NhcGUub3Jnm+48GgAAGF1JREFUeJztnXuQHXWVxz+n70wwvBNAJSR3IiRgJLryEkRUdONqWaJbW4DlLoK6JZQC8wJMdFVGBQwqmZkYtLCWdcXH1sZ1fQRXXaKLCshTVEAIBJK5CSiCJDyTzNzb3/3j1zcMw330nbn9mulP1a2putO//p3+9bmnz++c8/s15OTk5OTk5OTk5OTk5OTk5OTk5OTk5OTk5CSH4EjBtwS3B3+PTFqmnJyaCOYIVgp2CTTuMya4SnBQ0jLm5AAg8ARnCv4yQVknfp4Q9Ag6kpY5ZwYjWCa4q4myTvzcJViWtOw5MwxBUXBNi8o68bNOcFjS15IzzRHsE/itO6eosNXPzuB8+yR9bTnTjMBv/YDgkZDKOBpY0tGQxz8SnN9L+lpzpgGC4wQ3tWA9r6uGuQSLBWtbaHuH4KSkrzknowjmBX6rH1LhNgjeVedcrU7Y1gm64r7mnIwimC1YLngqpIJtC47fo8l5OwVnCx4Led5nA39377iuPSeDCE4RPBRSqSqBJX5Zi33MFQwLyiH72SIXB7aorjsngwiOEvyyhcf39YLXTrHPJYKfttDnzYIT2nXNORlFcEDSVi+w7g9Gad1zpgGBf9kj2N6CfzkgmB2RPLMCecL60U8H8jT0o3OmCXIz+btDKocvF7Lqikm2eXLFNZWQ8t0vOC0O2XISQHC44NoWfMjbBW9ISNZjBTe2IOt6wdIkZM2JAMH+ql0yWO/ziFxoKtHslMAEpwlGQspdLYE8MEm5c6aAni8ZfDTkTd8lNynbN2nZxyPYM/Bfd4S8jr8qL4HMHoKTBb9r4fG6TnBo0nI3QrBArVWW3St4R9Jy5zRhJtzY6fiDnJHMtEfodHF9ZiSa4ZMVZXSSOWNRHhbajTIUzpuRKA/A10WTS5wUk5Z72qLnU51Phrwpz2gGpjo1+RT1S5KWfVqhrBWVDMgrDunM4rAeLg7qW/Ou0IK4RVAKioGiItUCCpYAg8DbQza5FegxuDk6qRqzYEhvMo9BfI5G+DLkQdmHL+7s5PLHzrVn4pRHcBQwBLwpZJPrgV6D30cm1BRJpdIK5gIXA+cChRBNHgY+AXzTQFHKVo9Dh1UsV7gUj38SVGxiOM3wgSeBz5QOZg2nWyVO+QSnAMPAK0Ic7gPfBi40+Eukgk2CVCmt3I3+EHAp4cJSzwFfBi4xiNWCVVk4qP19YwXQjwsl1f2RCXwDT8b9HvSN9Nj/xCao63820A38C+GWrW8HVgJDBruilK0VUqO0cruuDBI+LHUtcL7B5siEasSAOopz+BBwGWIurY1lBafcv5DRs6XH7o5ExjoIDgE+D5xBOLnvBy4wN+aJk7jSChbjLGvYsNRvcT7Xr6OTqjHFQS3DWA0swRCa9DhWMMDn6s4yn3rwIov1USw4DucyvD5kk/W4sb8nOqmak5jSyq0yvRBYQbiw1OPAJcAac5YqdroGtQRjleAdMiqmUP52UyR8z3hWcOksj6GN3RbboziIFrwfuBx4eYgmY8BXgYvNuQ+xE7vSyvl9ZwBfIFxYqjpInzJ4KkrZ6jHvSzqwo4NPIc6TIQs3OWwNCyaQ4k/Ax0s9fBOz2CaVgr2Ai4DlhIvZPgF8lgSMSKxKKzge9zg6PmST9UC3wb3RSVWf+as02/PolvvBvIQolHUiwsfwTNyOR89Ij90UeZ8v6J5FwGWEd9d+hwsz/io6qV5ILEormI8biLCO/wag3yDW2fVuJCsOc6pglcEhCEvAkSpjFIDveT4Xbe6zzXF2LngrbmL8mpBNrsUZmE3RSeWI9FYI9gTOBz5JuJ1StuF8q0GD0Shlq8f8IR1vLsRzQtXqJSFHFRkVgzHE8CyPyzZ2W2wu0rgQ5CWE28l8B7AauNTg6ajkikxpg7DKeuCVIQ4vA1cBnzbnK8XOhOSAH4nfOjWEeAyPT5UO5uo4kxNBsuezwDmEq0G+D1hmLunTdqJU2q8DHwhx6HqgzyDWWGWVg67U3rNHuRD4ePA4Tpuy7qaanAA2mOgb6bOfxNz/UpzLEGYn8383+GAUckSptHfT+M0uD+IC1j+MSoaGvDA5MIdsFUbvTk7g013qt1jjpoL3AFfQeCfzeyyi+uUolXYDcHiNfz0LfAlYabAzqv4bURzUMjyGEa+aYnIgacoCM3H1aIFP/rnbHourY0En8FGc21BrGc/9BkdE0XcSSvuqpEJYUSUHUoBvrn74sgSSE0uAP9b4V2RKm8QjcVvcHc77kg4sDmk4qOpfBjCNFBZcEc4+iJWjPvcWhxTnSo3Y72cSlvZggz9H1e94JiQHZpMtv3VyGBVEQXCbJ3pG+uw3UXYnl/r9U41/TStLGz2SFYd0mhkbgM+b2Ivpeq0TCZ4gBkfJ48bioL77ijXqSlqsdjLtLO38VXqdeQyb24DYZ6Yoa30quPqN4dm7uHTDcmtr0D+3tFNg3hVaUFylb3oeNwPHBl9Pm+ubAgVc3cTHdsxiY3FYZ7NWmfbnM39TD7pSexcHNdDhsVEe7wPsRUtdcgBMxkGIqxb8iTsWDurkpAWaLNl1D6rJAXEZZC45kDRtS07k7kFIXrFGXcU53IW4CmMuGb2OBKm6BydT4M6uIV2UqDQtksmbrb14FPi+waiEn7Q8GcUHPPO5qxJjLWw7yKTSbv6g7Sz12CfKHoeZz7/hNpsoJy1XhhDwGMY5I09y3NZeuyVpgVohuz7tOBYM6bhgg4w38Ly/lvNiKpirzd3RySXt2DgkCZ92Wsyyt/TabcBJxVU6RR5rTBTxMl0I027KQAHjO+azfKTPailZZsike1CPUr+t23c7i/HoFTzLTPd3zS04lMcNnji61GNnZl1hYZq4B7U4ZI0OKJT5NG5rJTFNniqhMLdQyIyHBCtKvfbdqLrKQ14hmb9Kc7u+rIZ7Uj18nv211Gs9BThyXKF5IvslxIwPPIWxYu/tLAmjsPNXadGhK7VfDLK1hUwqrefxTvlsKK7W4PxVmtvo2E29tmGk105FvA23dgmYfm5DsMVpBfGv5TEWlXrt8nsGrOHi0Jev1kFdg/qK53Hf2B68JS5Zp0omldaEEJ34nOcZmxcMqv/IAc1q1KbUZ+tL23kNcJbEE0wfxa0AmPipfF5Z6rNzHrnQHm/UYOHX9ZLisFbM8tnkGx8mY9GWTCot3u7tPDsw9jH44lP7s6k4pDOR6vvpA+aXeu2a0TILEZ9DjCqjLoOCH52Ju3yPk0t99q6t/baxcSNXslnZzgOIS4G9dtdpWHZ+xJlUWt+fsAet25vg5YhvFL/M7cVhndSo/aMX2bOlPhuoFDjMfP4DN1HLUnJCVk0OHMKxW7vtl80aLFytExYM8xtgLcY8Jtx7mzimKSaTSjvO0u7GwMOACq9B/Lo4pB8vWK1Gq0V5uNu2lvrt/YLjEbcFX6fX8roQ1k7gC7N3sbjUY19rtv/B/GEt7hrSf/niJuAYd5oa973GmKaVbIaB1GCAzV2T4O9wk7UrvQoXb+6zujv8BcmJE1OcnHBbJPl8v8Pjgod6rNSswfxVmut18DF8+gWgxiWb1mhMU0YmLa2FmEQZdBgUzOcjvjFSHNLyRavVcEvRFyQnxLMkPVmrJgfEjWYcU+qz05op7DFXqbM4rLM9jwflcwFuqXdniN5ynzZSWrAKgk7EvsBlYz73FYd0WqPJ2j0DNlrqsWG/g4XAGpy7EK+/6/ZiwMQIcPqWPjt5pNvubNasuEqnPL6TB/D5KmL/VorhKxlyDzKptGYtDrBTUc93L3pbWxzi1q5hndioSTU54RVYasbPgq/j8Hd9E09jrOj0eFXI5MDriqt1Ex4/kliABf59C2TJPciuTzsJb3P3BMR4rcQNxSH9txW4aOR8q7s95ebz7T7gXcGW9UO4rZ7avmAyKK00E1fvCrlbzKHDKlZ8LpPHP1IJtsKfrFy5pY0Wf+r+VwdgZrzbr3B/cUjDzdKY45MTuA0q2uUDuuQA/Mo8XlPqs3OaKWzxK5pTHNLKss8DgvcG++dOyQBZJfdpo6VNVkGi06BD8NHKbEaKw+phQPVvfpCc2NE59eSEgvedybjbE28p9drflrqt1vZCu6lOsjTmNu/DmDVVZd1Nbmkjps3+l0GHfPZDrCruz4Zm2wo9dq49U+qzgbLPompyokXllcklB7YczDGb++z6Zg2Kg1r2l+e4G5+vms8c2uza5cmFiIlkgAN/ULAQWFsc0i+7VuuoRk0eucC2lPrt/b7PCbA7OVH/MTs+OTDKojDJgQWrdGzXoG7AuM5g0WQmWaHIkKXN5kQswgHePVkTJ0rcURzU9wqdXLjpPBup12Zrv92KdGJxmFMlrjBjPgbjpou7kwPNzlXlkNWa31HhYnn8s6CMqKarIyG3tBFjcRR3GB3BBOc9lTIbikNauWi1au3DWhVKpV77rsQRgk9K7KDqt8JN5nNsqc9Oa6aw1c1HCj4b8TgLYShUcmBKVDJUMJNNS+vHmmDtBBBcMOZzTnFYA6VtXMmA1Uw4bO23HcBlrxjS1RXxPvO4vxTmHbjVzUfG+DzGfkBBcdq+DFnaTCptxUNezENs0CFjP8RgcX/OZ0gfbxT439Rrj+JeWd+UIAa8Bp/FeFgSNQ9WyJU2UhLL3jyvTAuBtV1Dut7z6N3Ubb+fzOm6BnW0D4MYb4Lg9U9JqU5uaaMlTMFMxBQABCdVxJ3FIX3bxMfCrnSdv0qHeMaAjA+Ne0VnovOLFIxpaDI5EWt3nHYKdATW970yNhWHtPKIy7VPvYNf9kXtVRzScs94wDzOwo1/5JOsMGTJPcik0qbQKnTi3qR+4c49eGD+sBZPPGDBsJbO6mREcAnGbMUQEZiuZFJpUxwILwhe1uFzyMR/eD5dBgekde/ccjl1hqAumVTatAfCVSNnJaV7rFP49KpLqgeyHuW0+19+DaWNJvnaNnKfNmKyaGmxlCttysd0PJlU2tTHFGtY2prfpYnc0kZL2h9lKrx4XL2Uj7VV0j2m40n1QNYj9ZOGWlY15e5BOUMFM5lU2rS7B6qhoErPHgq1SfmYjieTSpt296CQQUub9jEdTyaVtpx2q5DF6EHu00ZL2n3aWokEpXysYymsbxOpHsi6pN3SZjDkZR0pH9NxZFJp0+5/1UoueGnPiOXuQbSkPntTy39NuaUdzZU2WtLu09ZKJMgLFtKklNynjZi0uwc1rarSrLK5Txs5Y1l0D/KQV9vIpNKmPXpQK/ullPu0uaWNmNS7B17dgpnUym3l9Mo2kWwqbconDTXrDAyLdfONFvG8dI/peDKptF6F55KWoSH1/Nf0rm1DYlfSMoQlk0q7uc82y2cN7nE7lrQ8E6kZ8gLPUqay5sbOB74Y7IiTCTKptABb+u18PJYKfhF8le7HW7qiB26DEOOGgsfRpV77WMLytEQqlzOHJdg5+x3FQS3D48uIw7Fk9sLajWoXxwg8S3oiZru3OdkE9I302LWJyjNJMmtpx1Pqs/Wlbbwa4yOIbYm+79YLNgidiE+i3oGgbOJJjL7SPF5Z6s2mwsI0UVoABqxc6rGv7eiky8QlwC5Lwt8V1LT0ybkHY7ixuKLTo6vUY8PNdh9PO9NHaQOq70OoeCxCfANDivPldUZNBfXiT+OWA3fgh4UOjij12oqN3fZUrBJExLRT2ioPd9vWkT77MHCcwc0AKIbJmlBNn9bDs3hCXlUrelP11aRhtsvPEpmeiIWh1GN3AG8sDmqZ4EoTi6i9IKZteHUKZtxrGCLCvZPBB0aAFWHe9JhVkrC0cxLok1KfrX/pnizF4yPy2EZELoOc8sTq0woqBk9i9Je2c0TMChv7/UxCaW8TDAheEnfHd5xjY6Ue+1rB51DgCsQobVZeszovQY2gYMaMMUHZ4MrCrmCSVeddEO1G0Cnooep6xUiUSltv5r4XcDFwt+A9EfZfl819tr3UayvKPotM/GcwYWnbzVaNghmBV//d5y1Txm0t/SOvwOGlXut5aIU92bazNyG4b/fi3ilR740/kUVuolTa25r8/zDgB4LrBEsjlKMuj1xgW0b67AyJ4ymEeHldWGpYWs+mHj1QVTbxOzNOGum1Uxu9jLrdCJYKrgN+gLt/jWh2/ydNlEr7SeC+EMctA+4UrBHMjVCeumzptdtK3XYiPu82sQVNqWJXtXaYCXzayZ3VtfI9YwQ4vdRnx4302E2TlrD17ucK1gB34u5XM+7D3f9IiO4NgPAwcAywAnimyeEdwLnARsFywayo5GpEqd/WHbgni/H4CMZ2JuHvCtq93KZsxlPAJzqNJXFOsuRedn02TgnPpXm0aQdwOfC64P5HQqQTMYPnzF3EEuCbNLc0c4CVwB8E74xStnpUJ2vM4lA8rsD5Zq35Z7X28jLMWvBpJcqCMh5fMdFV6rXLN3ZbbOWDgrcCvwWuAg4K0eRa4EiDFQZPRylbLNEDg60GZwKvB24J0eQI4MeBv/uqaKWrTemjtq3UbSsKHSw2sTZ0Zk11t/UMN9ZuQigzfmjiiFK39Wzus+2tST95BIsEa4GfA68O0eRO4M0Gp5grxImcWENe5hT2ROAsIEz95jLgd4JhwX6RCleHTefZyEifneGL1wN3BF/XnayZV8enbVIwo+rKtwJ/wHhTqddOLfXZQ1MSvgUEewkGgLuA00I0+SvQi8s4/ipK2SYSe5zWwDe4BlgEfAaaVsx3At3Ag4IeBS+ei5utvXbLlh5eD5wu8TB1FNfqFMyoUfRA+Bh/xjirdD7HlnrshvZJ3hg5kc8ENuJCkc3i52PAauAwg2FLoKIusdoDg2fM/bJfDYSZXByAiwveKnhjlLLVJXjT+L5PsgijH3hGE+O7dQpmaimywRjiaYxP7GEcWuq1a7D4KhgFxwE3At8AXh6iyXrgKIMeg9jiwhNJvGDG4AGD03GuwN0hmhwN/EqwTu4dtbFzz4CNlnpseNTjUApcFdTvjoFL49baNdGzF6iym2QZa3yxMIFJ1iFyT7tbcPOMZtyP81nfZnBPtNI1J3GlrWLO8T8KOAd4PESTdwH3CFYK9o5UuDr8udse29Jt5xUKLDX4WfB1Z4N62lm4OO46PF450mP9W/vtibjkFcwWLMdls94PTVPL23Ehy1ebiw7k1CMIZg/LWSSF+GwVnKnmNyFSuob1luKQ7iwO6/yJ/ysOaXlxSLcWB/WGJGQTnCLYFHI8K4JrBC9NQtZMI1gi+EnIgZbgFsEJScvNgF78BKv1XQwIjhL8soUx/D/B3yQh67QisBIPhhx0P7ASYSYW0xbBAS0+rUpBFCGnXQhmBSGvJ0PehGfkSiD3SFr2OFFQMijYHnKcnlVCpaIzBsHBws3YQ96UBxQuWJ55BMvkJqdhXYFrBcWk5Z4xCI4V3NDCDVqvcGnJzCE4PFDAsGNR/XwnadlnHHLZnNMEIyFv0lhgpcMUgKQewRy5kN+uSShs1f9PJJox4xHsGfhlO0LerL8Gfl8mF3YKPLkQ36MtKGe9/92uFMXrZxyCBXKRg0Y3afznXsE7kpa7FQRvEfy+BWu6TvDRJsd8KOnrmvEITparDmvlxjZbPpIo436QYa/pj4K3j2v/vw2OfVQJVdHljGMSj9BRubhmvYV6iaCgZHASrk9hwnmOlPPp67W7PKlrzJmAYH+5ycrOkDf9EcHZSft5mvwk88AG5/xqg/a7BIfHeY05TZALC61r4fF6u+CkhGQ9VnBjC7KuV4gVzXI1HY83OM8P47i+nBaRC8DfHVIZfMFaQVdMss1Ta4mT+9Vi4kTQ2+Scb29+lpzY0eRTnbMjkqeaon4qpDxPa5IparkVto1+tH+UWy2Sk0bUelHJFrW5BFKuGOihkP1XSwZfNsU+lzXp50WllTkpQ62X710veO0U+1wi+GkLfd4sOL6N19wo7fuEGkzoclJEHFZPrRe4t926B3IsUuOIypp29pcTIQqWpCi8f7ktOL6hfynnR58teCzkeZ9VxEuJBFc06L+saVpgNG2Rm8m3khKuO5NXaxELyYXmumK4xn0Ff2ogx8+jliEnAgTHCW5qQeGuExwZtF2s1mLDdyjm2HBg/RvJ9PdxypPTJuRSwh+Qy5aFUb7RQFlHQx7/SHD+2LNwgoLcrpX1ZNuoGbb6Y1oh2EetpYSbfXYG59sn4et6cxM5lycpX04bUOsVV/X81tRUlsll/urJ+pTg4KRlzGkDchOsu1pU1rsUbmPiWBEsFDzXQO6vJy1jTpvQ8yWQf2mirE8o5aslBJ+rI/smwT8kLV9Om1H99VqZWZcmt2xpfClkpDUXOSlBrtj6W3Kljd9SEP7KCoIzxvncXUnLk5PTFLni82OSliMnJycnJycnJycnJycnJycnJycnJye9/D+enQ/Zl922AAAAAABJRU5ErkJggg==;opacity=30;" parent="1" vertex="1">
          <mxGeometry x="1102.48" y="704" width="37.52" height="36" as="geometry" />
        </mxCell>
        <mxCell id="12Kk-LmH_8AV22cGtEr0-12" value="" style="curved=1;endArrow=classic;html=1;strokeColor=#FF0000;flowAnimation=1;" parent="1" edge="1">
          <mxGeometry width="50" height="50" relative="1" as="geometry">
            <mxPoint x="540" y="410" as="sourcePoint" />
            <mxPoint x="1050" y="410" as="targetPoint" />
            <Array as="points">
              <mxPoint x="790" y="240" />
            </Array>
          </mxGeometry>
        </mxCell>
        <mxCell id="8MKXp84IUQz-j6FiydbH-10" value="" style="curved=1;endArrow=none;html=1;startArrow=classic;startFill=1;endFill=0;strokeColor=#FF0000;flowAnimation=1;flowAnimationDirection=reverse;" parent="1" edge="1">
          <mxGeometry width="50" height="50" relative="1" as="geometry">
            <mxPoint x="550" y="440" as="sourcePoint" />
            <mxPoint x="1030" y="430" as="targetPoint" />
            <Array as="points">
              <mxPoint x="780" y="270" />
            </Array>
          </mxGeometry>
        </mxCell>
        <mxCell id="8MKXp84IUQz-j6FiydbH-18" value="4" style="ellipse;whiteSpace=wrap;html=1;aspect=fixed;strokeWidth=2;fontFamily=Tahoma;spacingBottom=4;spacingRight=2;strokeColor=#FF6666;fontColor=#FF0000;" parent="1" vertex="1">
          <mxGeometry x="878" y="646.9999999999999" width="20" height="20" as="geometry" />
        </mxCell>
        <mxCell id="8MKXp84IUQz-j6FiydbH-19" value="&lt;font&gt;2&lt;/font&gt;" style="ellipse;whiteSpace=wrap;html=1;aspect=fixed;strokeWidth=2;fontFamily=Tahoma;spacingBottom=4;spacingRight=2;strokeColor=#FF6666;fontColor=#FF0000;" parent="1" vertex="1">
          <mxGeometry x="746.0000000000001" y="426.4" width="20" height="20" as="geometry" />
        </mxCell>
        <mxCell id="8MKXp84IUQz-j6FiydbH-21" value="" style="shape=table;html=1;whiteSpace=wrap;startSize=0;container=1;collapsible=0;childLayout=tableLayout;align=left;rounded=0;shadow=0;sketch=1;arcSize=0;fontColor=#FF0000;strokeColor=#FF0000;" parent="1" vertex="1">
          <mxGeometry x="780" y="409.4" width="190" height="54" as="geometry" />
        </mxCell>
        <mxCell id="8MKXp84IUQz-j6FiydbH-22" value="" style="shape=tableRow;horizontal=0;startSize=0;swimlaneHead=0;swimlaneBody=0;top=0;left=0;bottom=0;right=0;collapsible=0;dropTarget=0;fillColor=none;points=[[0,0.5],[1,0.5]];portConstraint=eastwest;fontColor=#FF0000;strokeColor=#FF0000;" parent="8MKXp84IUQz-j6FiydbH-21" vertex="1">
          <mxGeometry width="190" height="20" as="geometry" />
        </mxCell>
        <mxCell id="8MKXp84IUQz-j6FiydbH-23" value="response" style="shape=partialRectangle;html=1;whiteSpace=wrap;connectable=0;fillColor=none;top=0;left=0;bottom=0;right=0;overflow=hidden;fontColor=#FF0000;strokeColor=#FF0000;" parent="8MKXp84IUQz-j6FiydbH-22" vertex="1">
          <mxGeometry width="60" height="20" as="geometry">
            <mxRectangle width="60" height="20" as="alternateBounds" />
          </mxGeometry>
        </mxCell>
        <mxCell id="8MKXp84IUQz-j6FiydbH-24" value="&lt;span style=&quot;text-align: center&quot;&gt;success&lt;/span&gt;" style="shape=partialRectangle;html=1;whiteSpace=wrap;connectable=0;fillColor=none;top=0;left=0;bottom=0;right=0;overflow=hidden;align=left;fontColor=#FF0000;strokeColor=#FF0000;" parent="8MKXp84IUQz-j6FiydbH-22" vertex="1">
          <mxGeometry x="60" width="130" height="20" as="geometry">
            <mxRectangle width="130" height="20" as="alternateBounds" />
          </mxGeometry>
        </mxCell>
        <mxCell id="8MKXp84IUQz-j6FiydbH-25" value="" style="shape=tableRow;horizontal=0;startSize=0;swimlaneHead=0;swimlaneBody=0;top=0;left=0;bottom=0;right=0;collapsible=0;dropTarget=0;fillColor=none;points=[[0,0.5],[1,0.5]];portConstraint=eastwest;fontColor=#FF0000;" parent="8MKXp84IUQz-j6FiydbH-21" vertex="1">
          <mxGeometry y="20" width="190" height="34" as="geometry" />
        </mxCell>
        <mxCell id="8MKXp84IUQz-j6FiydbH-26" value="data" style="shape=partialRectangle;html=1;whiteSpace=wrap;connectable=0;fillColor=none;top=0;left=0;bottom=0;right=0;overflow=hidden;fontColor=#FF0000;" parent="8MKXp84IUQz-j6FiydbH-25" vertex="1">
          <mxGeometry width="60" height="34" as="geometry">
            <mxRectangle width="60" height="34" as="alternateBounds" />
          </mxGeometry>
        </mxCell>
        <mxCell id="8MKXp84IUQz-j6FiydbH-27" value="&lt;span style=&quot;&quot;&gt;department: HR&lt;/span&gt;&lt;div&gt;&lt;font&gt;access: tickets&lt;/font&gt;&lt;/div&gt;" style="shape=partialRectangle;html=1;whiteSpace=wrap;connectable=0;fillColor=none;top=0;left=0;bottom=0;right=0;overflow=hidden;align=left;fontColor=#FF0000;" parent="8MKXp84IUQz-j6FiydbH-25" vertex="1">
          <mxGeometry x="60" width="130" height="34" as="geometry">
            <mxRectangle width="130" height="34" as="alternateBounds" />
          </mxGeometry>
        </mxCell>
        <mxCell id="8MKXp84IUQz-j6FiydbH-28" value="&lt;font&gt;3&lt;/font&gt;" style="ellipse;whiteSpace=wrap;html=1;aspect=fixed;strokeWidth=2;fontFamily=Tahoma;spacingBottom=4;spacingRight=2;strokeColor=#FF6666;fontColor=#FF0000;" parent="1" vertex="1">
          <mxGeometry x="578" y="514.3500000000001" width="20" height="20" as="geometry" />
        </mxCell>
        <mxCell id="8MKXp84IUQz-j6FiydbH-30" value="" style="shape=table;html=1;whiteSpace=wrap;startSize=0;container=1;collapsible=0;childLayout=tableLayout;align=left;rounded=0;shadow=0;sketch=1;arcSize=0;fontColor=#FF0000;strokeColor=#FF0000;" parent="1" vertex="1">
          <mxGeometry x="528.4300000000001" y="255" width="170" height="61" as="geometry" />
        </mxCell>
        <mxCell id="8MKXp84IUQz-j6FiydbH-31" value="" style="shape=tableRow;horizontal=0;startSize=0;swimlaneHead=0;swimlaneBody=0;top=0;left=0;bottom=0;right=0;collapsible=0;dropTarget=0;fillColor=none;points=[[0,0.5],[1,0.5]];portConstraint=eastwest;strokeColor=#FF0000;fontColor=#FF0000;" parent="8MKXp84IUQz-j6FiydbH-30" vertex="1">
          <mxGeometry width="170" height="20" as="geometry" />
        </mxCell>
        <mxCell id="8MKXp84IUQz-j6FiydbH-32" value="request" style="shape=partialRectangle;html=1;whiteSpace=wrap;connectable=0;fillColor=none;top=0;left=0;bottom=0;right=0;overflow=hidden;strokeColor=#FF0000;fontColor=#FF0000;" parent="8MKXp84IUQz-j6FiydbH-31" vertex="1">
          <mxGeometry width="48" height="20" as="geometry">
            <mxRectangle width="48" height="20" as="alternateBounds" />
          </mxGeometry>
        </mxCell>
        <mxCell id="8MKXp84IUQz-j6FiydbH-33" value="&lt;span style=&quot;text-align: center&quot;&gt;login&lt;/span&gt;" style="shape=partialRectangle;html=1;whiteSpace=wrap;connectable=0;fillColor=none;top=0;left=0;bottom=0;right=0;overflow=hidden;align=left;strokeColor=#FF0000;fontColor=#FF0000;" parent="8MKXp84IUQz-j6FiydbH-31" vertex="1">
          <mxGeometry x="48" width="122" height="20" as="geometry">
            <mxRectangle width="122" height="20" as="alternateBounds" />
          </mxGeometry>
        </mxCell>
        <mxCell id="8MKXp84IUQz-j6FiydbH-34" value="" style="shape=tableRow;horizontal=0;startSize=0;swimlaneHead=0;swimlaneBody=0;top=0;left=0;bottom=0;right=0;collapsible=0;dropTarget=0;fillColor=none;points=[[0,0.5],[1,0.5]];portConstraint=eastwest;strokeColor=#FF0000;fontColor=#FF0000;" parent="8MKXp84IUQz-j6FiydbH-30" vertex="1">
          <mxGeometry y="20" width="170" height="41" as="geometry" />
        </mxCell>
        <mxCell id="8MKXp84IUQz-j6FiydbH-35" value="data" style="shape=partialRectangle;html=1;whiteSpace=wrap;connectable=0;fillColor=none;top=0;left=0;bottom=0;right=0;overflow=hidden;strokeColor=#FF0000;fontColor=#FF0000;" parent="8MKXp84IUQz-j6FiydbH-34" vertex="1">
          <mxGeometry width="48" height="41" as="geometry">
            <mxRectangle width="48" height="41" as="alternateBounds" />
          </mxGeometry>
        </mxCell>
        <mxCell id="8MKXp84IUQz-j6FiydbH-36" value="name: john&lt;br&gt;pass: akykos92H4X2" style="shape=partialRectangle;html=1;whiteSpace=wrap;connectable=0;fillColor=none;top=0;left=0;bottom=0;right=0;overflow=hidden;align=left;strokeColor=#FF0000;fontColor=#FF0000;" parent="8MKXp84IUQz-j6FiydbH-34" vertex="1">
          <mxGeometry x="48" width="122" height="41" as="geometry">
            <mxRectangle width="122" height="41" as="alternateBounds" />
          </mxGeometry>
        </mxCell>
        <mxCell id="Veqwfinaw4bf1ErAmTQ--62" value="" style="curved=1;endArrow=none;html=1;startArrow=classic;startFill=1;endFill=0;strokeColor=#FF0000;flowAnimation=1;flowAnimationDirection=reverse;" parent="1" edge="1">
          <mxGeometry width="50" height="50" relative="1" as="geometry">
            <mxPoint x="540" y="560" as="sourcePoint" />
            <mxPoint x="1050" y="520" as="targetPoint" />
            <Array as="points">
              <mxPoint x="810" y="730" />
            </Array>
          </mxGeometry>
        </mxCell>
        <mxCell id="Veqwfinaw4bf1ErAmTQ--65" value="" style="curved=1;endArrow=classic;html=1;strokeColor=#FF0000;flowAnimation=1;" parent="1" edge="1">
          <mxGeometry width="50" height="50" relative="1" as="geometry">
            <mxPoint x="550" y="540" as="sourcePoint" />
            <mxPoint x="1030" y="500" as="targetPoint" />
            <Array as="points">
              <mxPoint x="810" y="690" />
            </Array>
          </mxGeometry>
        </mxCell>
        <mxCell id="Veqwfinaw4bf1ErAmTQ--66" value="&lt;font&gt;1&lt;/font&gt;" style="ellipse;whiteSpace=wrap;html=1;aspect=fixed;strokeWidth=2;fontFamily=Tahoma;spacingBottom=4;spacingRight=2;strokeColor=#FF6666;fontColor=#FF0000;" parent="1" vertex="1">
          <mxGeometry x="493.71" y="275.5" width="20" height="20" as="geometry" />
        </mxCell>
        <mxCell id="WRS6139NubzwKbTHHwBM-1" value="" style="shape=table;html=1;whiteSpace=wrap;startSize=0;container=1;collapsible=0;childLayout=tableLayout;align=left;rounded=0;shadow=0;sketch=1;arcSize=0;fontColor=#FF0000;strokeColor=#FF0000;" parent="1" vertex="1">
          <mxGeometry x="610" y="493.85" width="170" height="61" as="geometry" />
        </mxCell>
        <mxCell id="WRS6139NubzwKbTHHwBM-2" value="" style="shape=tableRow;horizontal=0;startSize=0;swimlaneHead=0;swimlaneBody=0;top=0;left=0;bottom=0;right=0;collapsible=0;dropTarget=0;fillColor=none;points=[[0,0.5],[1,0.5]];portConstraint=eastwest;strokeColor=#FF0000;fontColor=#FF0000;" parent="WRS6139NubzwKbTHHwBM-1" vertex="1">
          <mxGeometry width="170" height="20" as="geometry" />
        </mxCell>
        <mxCell id="WRS6139NubzwKbTHHwBM-3" value="request" style="shape=partialRectangle;html=1;whiteSpace=wrap;connectable=0;fillColor=none;top=0;left=0;bottom=0;right=0;overflow=hidden;strokeColor=#FF0000;fontColor=#FF0000;" parent="WRS6139NubzwKbTHHwBM-2" vertex="1">
          <mxGeometry width="48" height="20" as="geometry">
            <mxRectangle width="48" height="20" as="alternateBounds" />
          </mxGeometry>
        </mxCell>
        <mxCell id="WRS6139NubzwKbTHHwBM-4" value="&lt;span style=&quot;text-align: center&quot;&gt;login&lt;/span&gt;" style="shape=partialRectangle;html=1;whiteSpace=wrap;connectable=0;fillColor=none;top=0;left=0;bottom=0;right=0;overflow=hidden;align=left;strokeColor=#FF0000;fontColor=#FF0000;" parent="WRS6139NubzwKbTHHwBM-2" vertex="1">
          <mxGeometry x="48" width="122" height="20" as="geometry">
            <mxRectangle width="122" height="20" as="alternateBounds" />
          </mxGeometry>
        </mxCell>
        <mxCell id="WRS6139NubzwKbTHHwBM-5" value="" style="shape=tableRow;horizontal=0;startSize=0;swimlaneHead=0;swimlaneBody=0;top=0;left=0;bottom=0;right=0;collapsible=0;dropTarget=0;fillColor=none;points=[[0,0.5],[1,0.5]];portConstraint=eastwest;strokeColor=#FF0000;fontColor=#FF0000;" parent="WRS6139NubzwKbTHHwBM-1" vertex="1">
          <mxGeometry y="20" width="170" height="41" as="geometry" />
        </mxCell>
        <mxCell id="WRS6139NubzwKbTHHwBM-6" value="data" style="shape=partialRectangle;html=1;whiteSpace=wrap;connectable=0;fillColor=none;top=0;left=0;bottom=0;right=0;overflow=hidden;strokeColor=#FF0000;fontColor=#FF0000;" parent="WRS6139NubzwKbTHHwBM-5" vertex="1">
          <mxGeometry width="48" height="41" as="geometry">
            <mxRectangle width="48" height="41" as="alternateBounds" />
          </mxGeometry>
        </mxCell>
        <mxCell id="WRS6139NubzwKbTHHwBM-7" value="name: joe&lt;br&gt;pass: fc8XsZ9qXHUB" style="shape=partialRectangle;html=1;whiteSpace=wrap;connectable=0;fillColor=none;top=0;left=0;bottom=0;right=0;overflow=hidden;align=left;strokeColor=#FF0000;fontColor=#FF0000;" parent="WRS6139NubzwKbTHHwBM-5" vertex="1">
          <mxGeometry x="48" width="122" height="41" as="geometry">
            <mxRectangle width="122" height="41" as="alternateBounds" />
          </mxGeometry>
        </mxCell>
        <mxCell id="fDFnkcY9cw2R46XBb-h0-2" value="" style="shape=table;html=1;whiteSpace=wrap;startSize=0;container=1;collapsible=0;childLayout=tableLayout;align=left;rounded=0;shadow=0;sketch=1;arcSize=0;fontColor=#FF0000;strokeColor=#FF0000;" parent="1" vertex="1">
          <mxGeometry x="910" y="630" width="190" height="54" as="geometry" />
        </mxCell>
        <mxCell id="fDFnkcY9cw2R46XBb-h0-3" value="" style="shape=tableRow;horizontal=0;startSize=0;swimlaneHead=0;swimlaneBody=0;top=0;left=0;bottom=0;right=0;collapsible=0;dropTarget=0;fillColor=none;points=[[0,0.5],[1,0.5]];portConstraint=eastwest;fontColor=#FF0000;strokeColor=#FF0000;" parent="fDFnkcY9cw2R46XBb-h0-2" vertex="1">
          <mxGeometry width="190" height="20" as="geometry" />
        </mxCell>
        <mxCell id="fDFnkcY9cw2R46XBb-h0-4" value="response" style="shape=partialRectangle;html=1;whiteSpace=wrap;connectable=0;fillColor=none;top=0;left=0;bottom=0;right=0;overflow=hidden;fontColor=#FF0000;strokeColor=#FF0000;" parent="fDFnkcY9cw2R46XBb-h0-3" vertex="1">
          <mxGeometry width="60" height="20" as="geometry">
            <mxRectangle width="60" height="20" as="alternateBounds" />
          </mxGeometry>
        </mxCell>
        <mxCell id="fDFnkcY9cw2R46XBb-h0-5" value="&lt;span style=&quot;text-align: center&quot;&gt;success&lt;/span&gt;" style="shape=partialRectangle;html=1;whiteSpace=wrap;connectable=0;fillColor=none;top=0;left=0;bottom=0;right=0;overflow=hidden;align=left;fontColor=#FF0000;strokeColor=#FF0000;" parent="fDFnkcY9cw2R46XBb-h0-3" vertex="1">
          <mxGeometry x="60" width="130" height="20" as="geometry">
            <mxRectangle width="130" height="20" as="alternateBounds" />
          </mxGeometry>
        </mxCell>
        <mxCell id="fDFnkcY9cw2R46XBb-h0-6" value="" style="shape=tableRow;horizontal=0;startSize=0;swimlaneHead=0;swimlaneBody=0;top=0;left=0;bottom=0;right=0;collapsible=0;dropTarget=0;fillColor=none;points=[[0,0.5],[1,0.5]];portConstraint=eastwest;fontColor=#FF0000;" parent="fDFnkcY9cw2R46XBb-h0-2" vertex="1">
          <mxGeometry y="20" width="190" height="34" as="geometry" />
        </mxCell>
        <mxCell id="fDFnkcY9cw2R46XBb-h0-7" value="data" style="shape=partialRectangle;html=1;whiteSpace=wrap;connectable=0;fillColor=none;top=0;left=0;bottom=0;right=0;overflow=hidden;fontColor=#FF0000;" parent="fDFnkcY9cw2R46XBb-h0-6" vertex="1">
          <mxGeometry width="60" height="34" as="geometry">
            <mxRectangle width="60" height="34" as="alternateBounds" />
          </mxGeometry>
        </mxCell>
        <mxCell id="fDFnkcY9cw2R46XBb-h0-8" value="&lt;span style=&quot;&quot;&gt;department: Sales&lt;/span&gt;&lt;div&gt;&lt;font&gt;access: sysinfo, tickets&lt;/font&gt;&lt;/div&gt;" style="shape=partialRectangle;html=1;whiteSpace=wrap;connectable=0;fillColor=none;top=0;left=0;bottom=0;right=0;overflow=hidden;align=left;fontColor=#FF0000;" parent="fDFnkcY9cw2R46XBb-h0-6" vertex="1">
          <mxGeometry x="60" width="130" height="34" as="geometry">
            <mxRectangle width="130" height="34" as="alternateBounds" />
          </mxGeometry>
        </mxCell>
      </root>
    </mxGraphModel>
  </diagram>
</mxfile>
